<?xml version="1.0" encoding="utf-8"?>
<!-- Generator: Adobe Illustrator 16.0.0, SVG Export Plug-In . SVG Version: 6.00 Build 0)  -->
<!DOCTYPE svg PUBLIC "-//W3C//DTD SVG 1.1//EN" "http://www.w3.org/Graphics/SVG/1.1/DTD/svg11.dtd">
<svg version="1.1" id="Capa_1" xmlns="http://www.w3.org/2000/svg" xmlns:xlink="http://www.w3.org/1999/xlink" x="0px" y="0px"
	 width="36px" height="36px" viewBox="0 0 36 36" enable-background="new 0 0 36 36" xml:space="preserve">
<g>
	<g>
		<linearGradient id="SVGID_1_" gradientUnits="userSpaceOnUse" x1="1.125" y1="18.001" x2="34.875" y2="18.001">
			<stop  offset="0" style="stop-color:#E9631B"/>
			<stop  offset="1" style="stop-color:#E99D1B"/>
		</linearGradient>
		<path fill="url(#SVGID_1_)" d="M28.547,23.345c-2.083,0-3.936,1.013-5.09,2.571l-9.932-5.076c0.167-0.566,0.256-1.166,0.256-1.784
			c0-0.839-0.165-1.64-0.462-2.373l10.41-6.256c1.161,1.364,2.89,2.229,4.817,2.229c3.489,0,6.328-2.838,6.328-6.328
			S32.036,0,28.547,0s-6.328,2.839-6.328,6.328c0,0.806,0.151,1.579,0.428,2.288l-10.437,6.27c-1.161-1.323-2.863-2.159-4.757-2.159
			c-3.489,0-6.328,2.838-6.328,6.328c0,3.488,2.839,6.327,6.328,6.327c2.118,0,3.996-1.045,5.145-2.647l9.904,5.061
			c-0.184,0.594-0.283,1.224-0.283,1.877c0,3.488,2.839,6.328,6.328,6.328s6.328-2.84,6.328-6.328
			C34.875,26.184,32.036,23.345,28.547,23.345z M28.547,2.11c2.326,0,4.219,1.893,4.219,4.219s-1.893,4.219-4.219,4.219
			s-4.219-1.893-4.219-4.219S26.221,2.11,28.547,2.11z M7.453,23.273c-2.326,0-4.219-1.893-4.219-4.218
			c0-2.327,1.893-4.219,4.219-4.219s4.219,1.892,4.219,4.219C11.672,21.381,9.779,23.273,7.453,23.273z M28.547,33.892
			c-2.326,0-4.219-1.893-4.219-4.219c0-2.327,1.893-4.219,4.219-4.219s4.219,1.892,4.219,4.219
			C32.766,31.999,30.873,33.892,28.547,33.892z"/>
	</g>
</g>
</svg>
