<?xml version="1.0" encoding="utf-8"?>
<!-- Generator: Adobe Illustrator 16.0.0, SVG Export Plug-In . SVG Version: 6.00 Build 0)  -->
<!DOCTYPE svg PUBLIC "-//W3C//DTD SVG 1.1//EN" "http://www.w3.org/Graphics/SVG/1.1/DTD/svg11.dtd">
<svg version="1.1" id="Capa_1" xmlns="http://www.w3.org/2000/svg" xmlns:xlink="http://www.w3.org/1999/xlink" x="0px" y="0px"
	 width="141px" height="75px" viewBox="0 0 141 75" enable-background="new 0 0 141 75" xml:space="preserve">
<g id="App_development_1_">
	<path fill="#FFFFFF" d="M114.878,0H105.5c-6.471,0.005-11.715,5.249-11.723,11.721v51.578c0.008,6.472,5.252,11.716,11.723,11.721
		h23.444c6.471-0.005,11.714-5.249,11.722-11.721V11.721C140.658,5.249,135.415,0.005,128.944,0h-9.379 M18.755,0h-7.032
		C7.838,0,4.689,3.149,4.689,7.032v49.233H2.345C1.05,56.266,0,57.314,0,58.609v4.689c0.008,6.472,5.252,11.716,11.723,11.721
		h65.645c6.471-0.005,11.713-5.249,11.721-11.721v-4.689c0-1.295-1.049-2.344-2.343-2.344H84.4V7.032C84.4,3.149,81.252,0,77.367,0
		H23.444 M84.4,63.299c0,3.886-3.148,7.034-7.033,7.034H11.723c-3.885,0-7.034-3.148-7.034-7.034v-2.344h28.133
		c0,3.884,3.149,7.032,7.033,7.032h9.378c3.883,0,7.032-3.148,7.032-7.032H84.4V63.299z M37.511,60.955h14.067
		c0,1.295-1.05,2.344-2.344,2.344h-9.378C38.56,63.299,37.511,62.25,37.511,60.955z M77.367,4.687c1.294,0,2.344,1.051,2.344,2.346
		v49.233H9.378V7.032c0-1.294,1.049-2.346,2.345-2.346H77.367z M98.466,18.753h37.512v37.512H98.466V18.753z M105.5,4.687h23.444
		c3.884,0,7.033,3.149,7.033,7.035v2.343H98.466v-2.343C98.466,7.835,101.615,4.687,105.5,4.687z M128.944,70.333H105.5
		c-3.885,0-7.034-3.148-7.034-7.034v-2.344h37.512v2.344C135.978,67.185,132.828,70.333,128.944,70.333z"/>
	<path fill="#FFFFFF" d="M119.565,63.299h-4.688c-1.296,0-2.345,1.051-2.345,2.346c0,1.294,1.049,2.343,2.345,2.343h4.688
		c1.296,0,2.345-1.049,2.345-2.343C121.91,64.35,120.861,63.299,119.565,63.299z"/>
	<path fill="#FFFFFF" d="M16.412,51.577h56.266c1.295,0,2.345-1.052,2.345-2.346v-37.51c0-1.294-1.05-2.346-2.345-2.346H16.412
		c-1.296,0-2.344,1.051-2.344,2.346v37.51C14.067,50.525,15.116,51.577,16.412,51.577z M18.755,14.064h51.578v32.823H18.755V14.064z
		"/>
	<path fill="#FFFFFF" d="M114.878,11.721h4.688c1.296,0,2.345-1.051,2.345-2.346s-1.049-2.343-2.345-2.343h-4.688
		c-1.296,0-2.345,1.049-2.345,2.343S113.582,11.721,114.878,11.721z"/>
	<path fill="#FFFFFF" d="M107.845,23.443H105.5c-1.295,0-2.345,1.051-2.345,2.346s1.05,2.343,2.345,2.343h2.345
		c1.294,0,2.344-1.049,2.344-2.343S109.139,23.443,107.845,23.443z"/>
	<path fill="#FFFFFF" d="M114.878,28.132h14.066c1.294,0,2.344-1.049,2.344-2.343s-1.05-2.346-2.344-2.346h-14.066
		c-1.296,0-2.345,1.051-2.345,2.346S113.582,28.132,114.878,28.132z"/>
	<path fill="#FFFFFF" d="M107.845,32.821H105.5c-1.295,0-2.345,1.049-2.345,2.346c0,1.294,1.05,2.343,2.345,2.343h2.345
		c1.294,0,2.344-1.049,2.344-2.343C110.188,33.87,109.139,32.821,107.845,32.821z"/>
	<path fill="#FFFFFF" d="M128.944,32.821h-14.066c-1.296,0-2.345,1.049-2.345,2.346c0,1.294,1.049,2.343,2.345,2.343h14.066
		c1.294,0,2.344-1.049,2.344-2.343C131.288,33.87,130.238,32.821,128.944,32.821z"/>
	<path fill="#FFFFFF" d="M107.845,42.199H105.5c-1.295,0-2.345,1.049-2.345,2.343c0,1.295,1.05,2.346,2.345,2.346h2.345
		c1.294,0,2.344-1.051,2.344-2.346C110.188,43.248,109.139,42.199,107.845,42.199z"/>
	<path fill="#FFFFFF" d="M128.944,42.199h-14.066c-1.296,0-2.345,1.049-2.345,2.343c0,1.295,1.049,2.346,2.345,2.346h14.066
		c1.294,0,2.344-1.051,2.344-2.346C131.288,43.248,130.238,42.199,128.944,42.199z"/>
	<path fill="#FFFFFF" d="M32.822,18.753h-2.345c-1.294,0-2.345,1.052-2.345,2.346s1.05,2.343,2.345,2.343h2.345
		c1.294,0,2.344-1.049,2.344-2.343S34.117,18.753,32.822,18.753z"/>
	<path fill="#FFFFFF" d="M56.266,18.753H39.855c-1.295,0-2.344,1.052-2.344,2.346s1.049,2.343,2.344,2.343h16.411
		c1.296,0,2.345-1.049,2.345-2.343S57.562,18.753,56.266,18.753z"/>
	<path fill="#FFFFFF" d="M32.822,28.132h-2.345c-1.294,0-2.345,1.051-2.345,2.346s1.05,2.343,2.345,2.343h2.345
		c1.294,0,2.344-1.049,2.344-2.343S34.117,28.132,32.822,28.132z"/>
	<path fill="#FFFFFF" d="M56.266,28.132H39.855c-1.295,0-2.344,1.051-2.344,2.346s1.049,2.343,2.344,2.343h16.411
		c1.296,0,2.345-1.049,2.345-2.343S57.562,28.132,56.266,28.132z"/>
	<path fill="#FFFFFF" d="M32.822,37.51h-2.345c-1.294,0-2.345,1.049-2.345,2.344c0,1.297,1.05,2.346,2.345,2.346h2.345
		c1.294,0,2.344-1.049,2.344-2.346C35.167,38.559,34.117,37.51,32.822,37.51z"/>
	<path fill="#FFFFFF" d="M56.266,37.51H39.855c-1.295,0-2.344,1.049-2.344,2.344c0,1.297,1.049,2.346,2.344,2.346h16.411
		c1.296,0,2.345-1.049,2.345-2.346C58.611,38.559,57.562,37.51,56.266,37.51z"/>
</g>
</svg>
