<?xml version="1.0" encoding="utf-8"?>
<!-- Generator: Adobe Illustrator 16.0.0, SVG Export Plug-In . SVG Version: 6.00 Build 0)  -->
<!DOCTYPE svg PUBLIC "-//W3C//DTD SVG 1.1//EN" "http://www.w3.org/Graphics/SVG/1.1/DTD/svg11.dtd">
<svg version="1.1" id="Capa_1" xmlns="http://www.w3.org/2000/svg" xmlns:xlink="http://www.w3.org/1999/xlink" x="0px" y="0px"
	 width="36px" height="36px" viewBox="0 0 36 36" enable-background="new 0 0 36 36" xml:space="preserve">
<circle fill="#576678" cx="18" cy="18" r="18"/>
<g>
	<g>
		<g>
			<path fill="#FFFFFF" d="M24.484,9.39H11.516c-0.278,0-0.504,0.226-0.504,0.504v16.211c0,0.176,0.09,0.338,0.239,0.43
				s0.334,0.1,0.491,0.021L18,23.428l6.26,3.129c0.07,0.035,0.148,0.053,0.225,0.053c0.093,0,0.185-0.025,0.266-0.074
				c0.148-0.092,0.239-0.254,0.239-0.43V9.895C24.989,9.616,24.764,9.39,24.484,9.39z M23.98,25.289l-5.755-2.877
				c-0.071-0.035-0.148-0.053-0.226-0.053c-0.077,0-0.154,0.018-0.226,0.053l-5.754,2.877v-14.89h11.96V25.289L23.98,25.289z"/>
		</g>
	</g>
	<g>
		<g>
			<path fill="#FFFFFF" d="M21.723,15.336c-0.06-0.182-0.218-0.315-0.408-0.343l-1.978-0.288l-0.884-1.792
				c-0.085-0.172-0.26-0.281-0.453-0.281c-0.192,0-0.367,0.109-0.452,0.281l-0.884,1.792l-1.978,0.288
				c-0.19,0.027-0.348,0.161-0.407,0.343c-0.06,0.184-0.01,0.383,0.127,0.518l1.431,1.395l-0.338,1.97
				c-0.032,0.189,0.045,0.381,0.201,0.494c0.088,0.063,0.192,0.096,0.297,0.096c0.08,0,0.161-0.02,0.234-0.059L18,18.821l1.77,0.929
				c0.074,0.039,0.154,0.059,0.234,0.059c0.001,0,0.002,0,0.002,0c0.278,0,0.504-0.227,0.504-0.504c0-0.039-0.005-0.078-0.014-0.113
				l-0.332-1.943l1.431-1.395C21.732,15.719,21.781,15.52,21.723,15.336z M19.27,16.711c-0.119,0.116-0.174,0.283-0.146,0.447
				l0.21,1.223l-1.099-0.577c-0.073-0.038-0.154-0.058-0.235-0.058c-0.081,0-0.161,0.02-0.234,0.058l-1.099,0.577l0.21-1.223
				c0.028-0.164-0.026-0.331-0.145-0.447l-0.889-0.867l1.229-0.178c0.165-0.023,0.307-0.127,0.38-0.276L18,14.277l0.549,1.113
				c0.073,0.149,0.215,0.253,0.38,0.276l1.229,0.178L19.27,16.711z"/>
		</g>
	</g>
</g>
</svg>
