<?xml version="1.0" encoding="utf-8"?>
<!-- Generator: Adobe Illustrator 16.0.0, SVG Export Plug-In . SVG Version: 6.00 Build 0)  -->
<!DOCTYPE svg PUBLIC "-//W3C//DTD SVG 1.1//EN" "http://www.w3.org/Graphics/SVG/1.1/DTD/svg11.dtd">
<svg version="1.1" id="Capa_1" xmlns="http://www.w3.org/2000/svg" xmlns:xlink="http://www.w3.org/1999/xlink" x="0px" y="0px"
	 width="1080px" height="1080px" viewBox="0 0 1080 1080" enable-background="new 0 0 1080 1080" xml:space="preserve">
<linearGradient id="SVGID_1_" gradientUnits="userSpaceOnUse" x1="627.1982" y1="-63.4131" x2="-90.176" y2="830.8483">
	<stop  offset="0.0049" style="stop-color:#E9A21B"/>
	<stop  offset="0.5936" style="stop-color:#E9731B"/>
	<stop  offset="1" style="stop-color:#E9571B"/>
</linearGradient>
<path fill="url(#SVGID_1_)" d="M639.345,53.228v288.151c0,46.478-10.61,90.527-29.618,129.797
	c-48.35,99.732-150.507,168.479-268.709,168.479H159.935c-11.708,0-23.101,3.897-32.307,11.114l-42.385,32.719
	C50.414,710.4-0.081,685.66-0.081,641.675V298.643c0-37.586,6.923-73.595,19.622-106.691C62.499,79.861,171.117,0.301,298.282,0.301
	h288.15C615.629,0.301,639.345,23.945,639.345,53.228z"/>
<linearGradient id="SVGID_2_" gradientUnits="userSpaceOnUse" x1="400.1338" y1="230.9746" x2="-40.1461" y2="779.8168">
	<stop  offset="0.0049" style="stop-color:#E9A21B"/>
	<stop  offset="0.6404" style="stop-color:#E96F1B"/>
	<stop  offset="1" style="stop-color:#E9571B"/>
</linearGradient>
<path fill="url(#SVGID_2_)" d="M609.727,471.176c-48.35,99.732-150.507,168.479-268.709,168.479H159.935
	c-11.708,0-23.101,3.897-32.307,11.114l-42.385,32.719C50.414,710.4-0.081,685.66-0.081,641.675V298.643
	c0-37.586,6.923-73.595,19.622-106.691c1.459-0.07,2.988-0.07,4.498-0.07C260.548,191.881,471.618,300.795,609.727,471.176z"/>
<linearGradient id="SVGID_3_" gradientUnits="userSpaceOnUse" x1="1077.5674" y1="506.3364" x2="356.6494" y2="506.3364">
	<stop  offset="0.0049" style="stop-color:#7F0093"/>
	<stop  offset="0.4855" style="stop-color:#65008B"/>
	<stop  offset="1" style="stop-color:#4D0083"/>
</linearGradient>
<path fill="url(#SVGID_3_)" d="M356.65,185.554V827.13c0,60.395,65.213,98.322,117.693,68.413l563.439-320.785
	c53.046-30.203,53.046-106.65,0-136.853L474.343,117.12C421.863,87.23,356.65,125.147,356.65,185.554z"/>
<linearGradient id="SVGID_4_" gradientUnits="userSpaceOnUse" x1="642.0693" y1="865.1807" x2="163.498" y2="267.8259">
	<stop  offset="0.0049" style="stop-color:#4D0083"/>
	<stop  offset="0.2132" style="stop-color:#5E0C9D"/>
	<stop  offset="0.7463" style="stop-color:#8829DA"/>
	<stop  offset="1" style="stop-color:#9834F2"/>
</linearGradient>
<path fill="url(#SVGID_4_)" d="M356,271.1v557.28c0,59.437,65.458,96.765,117.105,67.329l216.091-122.663
	c0.983-12.042,0.576-24.19,0.576-36.451C689.772,536.137,554,361.628,356,271.1z"/>
</svg>
