<?xml version="1.0" encoding="utf-8"?>
<!-- Generator: Adobe Illustrator 16.0.0, SVG Export Plug-In . SVG Version: 6.00 Build 0)  -->
<!DOCTYPE svg PUBLIC "-//W3C//DTD SVG 1.1//EN" "http://www.w3.org/Graphics/SVG/1.1/DTD/svg11.dtd">
<svg version="1.1" id="Capa_1" xmlns="http://www.w3.org/2000/svg" xmlns:xlink="http://www.w3.org/1999/xlink" x="0px" y="0px"
	 width="124px" height="103px" viewBox="0 0 124 103" enable-background="new 0 0 124 103" xml:space="preserve">
<circle fill="#FFFFFF" cx="97.111" cy="78.945" r="1.714"/>
<circle fill="#FFFFFF" cx="97.111" cy="73.069" r="1.714"/>
<circle fill="#FFFFFF" cx="97.111" cy="85.31" r="1.713"/>
<circle fill="#FFFFFF" cx="102.987" cy="78.945" r="1.714"/>
<circle fill="#FFFFFF" cx="102.987" cy="73.069" r="1.714"/>
<circle fill="#FFFFFF" cx="102.987" cy="85.31" r="1.713"/>
<circle fill="#FFFFFF" cx="97.111" cy="65.726" r="1.713"/>
<path fill="#FFFFFF" d="M118.668,0H4.218C1.89,0.003,0.002,1.89,0,4.218v69.77c0.002,2.329,1.89,4.217,4.218,4.219h40.634v8.764
	h-6.009c-0.811,0-1.469,0.658-1.469,1.469s0.658,1.469,1.469,1.469h45.199c0.813,0,1.469-0.658,1.469-1.469
	s-0.656-1.469-1.469-1.469h-6.007v-8.764h13.201v15.671c0,4.867,3.946,8.813,8.813,8.813c4.866,0,8.812-3.945,8.812-8.813V78.206
	h9.807c2.329-0.003,4.215-1.889,4.218-4.218V4.218C122.883,1.89,120.997,0.003,118.668,0z M75.098,86.97H47.79v-8.764h27.308V86.97z
	 M105.924,92.409h-1.733c-0.813,0-1.469,0.656-1.469,1.468s0.656,1.469,1.469,1.469h1.548c-0.81,3.143-4.014,5.032-7.156,4.223
	c-2.071-0.534-3.688-2.151-4.222-4.223h4.905c0.813,0,1.469-0.657,1.469-1.469s-0.656-1.468-1.469-1.468h-5.09V62.054
	c0-0.54,0.438-0.979,0.978-0.979h9.793c0.54,0,0.979,0.438,0.979,0.979L105.924,92.409z M119.948,73.988
	c-0.001,0.707-0.573,1.28-1.28,1.281h-9.807v-5.312h4.307c0.811,0,1.468-0.658,1.468-1.469V9.718c0-0.812-0.657-1.469-1.468-1.469
	H29.966c-0.812,0-1.469,0.657-1.469,1.469c0,0.811,0.657,1.469,1.469,1.469h81.733V67.02h-2.838v-4.966
	c-0.003-2.162-1.754-3.914-3.916-3.916h-9.792c-2.162,0.002-3.914,1.754-3.917,3.916v4.966H11.187V11.187h8.988
	c0.811,0,1.469-0.658,1.469-1.469c0-0.812-0.658-1.469-1.469-1.469H9.718c-0.812,0-1.468,0.657-1.468,1.469v58.771
	c0,0.812,0.657,1.469,1.468,1.469h81.518v5.312H4.218c-0.707,0-1.281-0.574-1.281-1.281V4.218c0-0.706,0.574-1.28,1.281-1.281
	h114.45c0.707,0.001,1.279,0.575,1.28,1.281V73.988z"/>
<path fill="#FFFFFF" d="M73.274,47.635c-0.645-0.492-1.565-0.367-2.058,0.277c-0.392,0.513-0.822,0.995-1.288,1.44
	c-0.586,0.561-0.606,1.492-0.045,2.078c0.561,0.586,1.49,0.607,2.077,0.045c0.576-0.552,1.109-1.147,1.593-1.782
	C74.046,49.048,73.92,48.126,73.274,47.635L73.274,47.635z"/>
<path fill="#FFFFFF" d="M61.443,55.695c1.485,0.001,2.962-0.216,4.385-0.643c0.779-0.227,1.227-1.042,1-1.82
	c-0.228-0.779-1.043-1.227-1.821-0.999c-0.008,0.001-0.016,0.004-0.024,0.007c-6.487,1.946-13.325-1.735-15.271-8.221
	c-1.947-6.488,1.733-13.325,8.221-15.273c6.487-1.946,13.325,1.734,15.272,8.222c0.653,2.177,0.688,4.494,0.102,6.691
	c-0.201,0.786,0.272,1.586,1.057,1.787c0.776,0.198,1.567-0.258,1.781-1.029c2.177-8.118-2.64-16.463-10.757-18.64
	c-8.119-2.177-16.464,2.639-18.641,10.757s2.639,16.463,10.757,18.64C58.788,55.52,60.112,55.695,61.443,55.695z"/>
<path fill="#FFFFFF" d="M68.347,39.304l-7.856-5.893c-0.649-0.487-1.57-0.355-2.056,0.294c-0.191,0.253-0.294,0.563-0.294,0.88
	v11.785c0,0.811,0.658,1.469,1.469,1.469c0.318,0,0.627-0.104,0.881-0.294l7.856-5.891c0.648-0.487,0.78-1.408,0.293-2.057
	C68.557,39.486,68.457,39.387,68.347,39.304z M61.078,43.433v-5.909l3.938,2.955L61.078,43.433z"/>
</svg>
