<?xml version="1.0" encoding="utf-8"?>
<!-- Generator: Adobe Illustrator 16.0.0, SVG Export Plug-In . SVG Version: 6.00 Build 0)  -->
<!DOCTYPE svg PUBLIC "-//W3C//DTD SVG 1.1//EN" "http://www.w3.org/Graphics/SVG/1.1/DTD/svg11.dtd">
<svg version="1.1" id="Capa_1" xmlns="http://www.w3.org/2000/svg" xmlns:xlink="http://www.w3.org/1999/xlink" x="0px" y="0px"
	 width="83px" height="102px" viewBox="0 0 83 102" enable-background="new 0 0 83 102" xml:space="preserve">
<g>
	<path fill="#FFFFFF" d="M80.897,64.379c-0.821,0-1.488,0.666-1.488,1.488v20.309c0,3.56-2.896,6.456-6.453,6.456H9.432
		c-3.558,0-6.454-2.896-6.454-6.456V28.066c0-3.559,2.896-6.455,6.454-6.455h6.03c0.822,0,1.488-0.667,1.488-1.488
		c0-0.822-0.666-1.491-1.488-1.491h-6.03C4.231,18.632,0,22.866,0,28.066v58.109c0,5.201,4.231,9.433,9.432,9.433h1.69l2.765,4.681
		c0.622,1.057,1.768,1.711,2.992,1.711h5.258c1.225,0,2.371-0.654,2.993-1.711l2.765-4.681h26.597l2.765,4.681
		c0.622,1.057,1.769,1.711,2.993,1.711h5.258c1.225,0,2.371-0.654,2.993-1.711l2.765-4.681h1.69c5.2,0,9.432-4.231,9.432-9.433
		V65.867C82.388,65.045,81.722,64.379,80.897,64.379L80.897,64.379z M22.566,98.775c-0.089,0.152-0.252,0.245-0.429,0.245h-5.258
		c-0.174,0-0.339-0.093-0.428-0.245l-1.869-3.167h9.854L22.566,98.775z M65.935,98.775c-0.088,0.152-0.252,0.245-0.427,0.245H60.25
		c-0.176,0-0.339-0.093-0.429-0.245l-1.87-3.167h9.854L65.935,98.775z"/>
	<path fill="#FFFFFF" d="M72.956,18.632H53.781c-0.472-2.212-1.97-4.047-3.972-4.984l22.167-6.04
		c0.839,1.249,2.266,2.074,3.882,2.074c2.577,0,4.676-2.1,4.676-4.675c0-2.579-2.099-4.679-4.676-4.679
		c-2.487,0-4.526,1.953-4.668,4.404l-29.994,8.178L11.741,4.752c-0.131-2.46-2.176-4.425-4.668-4.425
		c-2.579,0-4.676,2.1-4.676,4.676c0,2.579,2.097,4.675,4.676,4.675c1.608,0,3.03-0.816,3.872-2.056l21.684,6.005
		c-2.026,0.929-3.546,2.775-4.022,5.005h-6.194c-0.824,0-1.49,0.669-1.49,1.491c0,0.822,0.666,1.488,1.49,1.488h50.544
		c3.558,0,6.453,2.896,6.453,6.455v30.852c0,0.822,0.667,1.488,1.488,1.488c0.824,0,1.49-0.666,1.49-1.488V28.066
		C82.388,22.863,78.156,18.632,72.956,18.632L72.956,18.632z M75.858,3.307c0.935,0,1.696,0.762,1.696,1.696
		c0,0.938-0.762,1.699-1.696,1.699c-0.936,0-1.697-0.761-1.697-1.699C74.161,4.068,74.923,3.307,75.858,3.307z M7.073,6.702
		c-0.936,0-1.698-0.761-1.698-1.699c0-0.935,0.762-1.696,1.698-1.696c0.935,0,1.696,0.762,1.696,1.696
		C8.769,5.94,8.007,6.702,7.073,6.702z M35.591,15.958h11.206c1.77,0,3.282,1.113,3.883,2.674H31.708
		C32.309,17.071,33.821,15.958,35.591,15.958z"/>
	<path fill="#FFFFFF" d="M76.43,34.023c0-5.201-4.231-9.432-9.432-9.432H15.39c-5.201,0-9.432,4.231-9.432,9.432V61.95
		c0,5.2,4.231,9.432,9.432,9.432h51.608c5.2,0,9.432-4.231,9.432-9.432V34.023z M42.714,27.57h8.279v40.835h-8.279V27.57z
		 M39.734,68.402h-8.28V27.57h8.28V68.402z M53.974,27.57h8.279v40.835h-8.279V27.57z M8.936,61.95V34.023
		c0-3.56,2.895-6.453,6.454-6.453h1.828v18.596c0,0.822,0.666,1.488,1.488,1.488c0.823,0,1.49-0.667,1.49-1.488V27.57h8.281v40.835
		h-8.281v-15.29c0-0.822-0.667-1.489-1.49-1.489c-0.822,0-1.488,0.667-1.488,1.489v15.29H15.39
		C11.831,68.402,8.936,65.509,8.936,61.95z M73.452,61.95c0,3.559-2.895,6.452-6.454,6.452h-1.766V27.57h1.766
		c3.56,0,6.454,2.893,6.454,6.453V61.95z"/>
	<path fill="#FFFFFF" d="M63.614,82.005c0,3.534,2.874,6.409,6.408,6.409c3.533,0,6.407-2.875,6.407-6.409
		c0-3.533-2.874-6.406-6.407-6.406C66.488,75.599,63.614,78.472,63.614,82.005z M70.022,85.435c-1.357,0-2.53-0.793-3.085-1.938
		h6.17C72.551,84.642,71.379,85.435,70.022,85.435z M73.107,80.517h-6.17c0.555-1.145,1.728-1.941,3.085-1.941
		C71.379,78.575,72.551,79.372,73.107,80.517z"/>
	<path fill="#FFFFFF" d="M6.468,82.005c0,3.534,2.875,6.409,6.408,6.409c3.534,0,6.408-2.875,6.408-6.409
		c0-3.533-2.874-6.406-6.408-6.406C9.343,75.599,6.468,78.472,6.468,82.005z M12.876,78.575c0.395,0,0.774,0.072,1.128,0.196
		l-4.363,4.364c-0.124-0.354-0.195-0.732-0.195-1.131C9.446,80.116,10.985,78.575,12.876,78.575z M12.876,85.435
		c-0.396,0-0.774-0.069-1.129-0.193l4.364-4.364c0.124,0.355,0.195,0.733,0.195,1.128C16.306,83.897,14.767,85.435,12.876,85.435
		L12.876,85.435z"/>
	<path fill="#FFFFFF" d="M59.067,74.956H23.32c-0.822,0-1.488,0.666-1.488,1.491c0,0.821,0.667,1.488,1.488,1.488h35.747
		c0.822,0,1.488-0.667,1.488-1.488C60.556,75.622,59.89,74.956,59.067,74.956z"/>
	<path fill="#FFFFFF" d="M59.067,80.517h-9.02c-0.822,0-1.488,0.667-1.488,1.488c0,0.822,0.666,1.491,1.488,1.491h9.02
		c0.822,0,1.488-0.669,1.488-1.491C60.556,81.184,59.89,80.517,59.067,80.517z"/>
	<path fill="#FFFFFF" d="M23.32,83.496h19.777c0.822,0,1.489-0.669,1.489-1.491c0-0.821-0.667-1.488-1.489-1.488H23.32
		c-0.822,0-1.488,0.667-1.488,1.488C21.832,82.827,22.499,83.496,23.32,83.496z"/>
	<path fill="#FFFFFF" d="M23.32,89.055h35.747c0.822,0,1.488-0.666,1.488-1.488s-0.666-1.488-1.488-1.488H23.32
		c-0.822,0-1.488,0.666-1.488,1.488S22.499,89.055,23.32,89.055z"/>
</g>
</svg>
